<mxfile host="app.diagrams.net" agent="Mozilla/5.0 (Windows NT 10.0; Win64; x64) AppleWebKit/537.36 (KHTML, like Gecko) Chrome/134.0.0.0 Safari/537.36" version="26.1.3">
  <diagram name="Page-1" id="854VjTd_bqpnDvirPEZn">
    <mxGraphModel dx="1221" dy="725" grid="1" gridSize="10" guides="1" tooltips="1" connect="1" arrows="1" fold="1" page="1" pageScale="1" pageWidth="850" pageHeight="1100" math="0" shadow="0">
      <root>
        <mxCell id="0" />
        <mxCell id="1" parent="0" />
        <mxCell id="Ew9fL7A3X2qlsFaMZsa6-3" value="" style="edgeStyle=orthogonalEdgeStyle;rounded=0;orthogonalLoop=1;jettySize=auto;html=1;" edge="1" parent="1" source="Ew9fL7A3X2qlsFaMZsa6-1" target="Ew9fL7A3X2qlsFaMZsa6-2">
          <mxGeometry relative="1" as="geometry" />
        </mxCell>
        <mxCell id="Ew9fL7A3X2qlsFaMZsa6-1" value="Connect to Vicon Datastream SDK through localhost:801" style="rounded=0;whiteSpace=wrap;html=1;" vertex="1" parent="1">
          <mxGeometry x="40" y="230" width="130" height="60" as="geometry" />
        </mxCell>
        <mxCell id="Ew9fL7A3X2qlsFaMZsa6-5" value="" style="edgeStyle=orthogonalEdgeStyle;rounded=0;orthogonalLoop=1;jettySize=auto;html=1;" edge="1" parent="1" source="Ew9fL7A3X2qlsFaMZsa6-2" target="Ew9fL7A3X2qlsFaMZsa6-4">
          <mxGeometry relative="1" as="geometry" />
        </mxCell>
        <mxCell id="Ew9fL7A3X2qlsFaMZsa6-2" value="Go through all Vicon groups" style="whiteSpace=wrap;html=1;rounded=0;" vertex="1" parent="1">
          <mxGeometry x="210" y="230" width="120" height="60" as="geometry" />
        </mxCell>
        <mxCell id="Ew9fL7A3X2qlsFaMZsa6-10" style="edgeStyle=orthogonalEdgeStyle;rounded=0;orthogonalLoop=1;jettySize=auto;html=1;exitX=1;exitY=0.75;exitDx=0;exitDy=0;entryX=0;entryY=0.5;entryDx=0;entryDy=0;" edge="1" parent="1" source="Ew9fL7A3X2qlsFaMZsa6-4" target="Ew9fL7A3X2qlsFaMZsa6-8">
          <mxGeometry relative="1" as="geometry">
            <Array as="points">
              <mxPoint x="510" y="275" />
              <mxPoint x="510" y="285" />
            </Array>
          </mxGeometry>
        </mxCell>
        <mxCell id="Ew9fL7A3X2qlsFaMZsa6-11" style="edgeStyle=orthogonalEdgeStyle;rounded=0;orthogonalLoop=1;jettySize=auto;html=1;exitX=1;exitY=0.25;exitDx=0;exitDy=0;" edge="1" parent="1" source="Ew9fL7A3X2qlsFaMZsa6-4" target="Ew9fL7A3X2qlsFaMZsa6-6">
          <mxGeometry relative="1" as="geometry">
            <Array as="points">
              <mxPoint x="510" y="245" />
              <mxPoint x="510" y="235" />
            </Array>
          </mxGeometry>
        </mxCell>
        <mxCell id="Ew9fL7A3X2qlsFaMZsa6-4" value="Go through all segmented points within the groups" style="whiteSpace=wrap;html=1;rounded=0;" vertex="1" parent="1">
          <mxGeometry x="370" y="230" width="120" height="60" as="geometry" />
        </mxCell>
        <mxCell id="Ew9fL7A3X2qlsFaMZsa6-6" value="Get location" style="whiteSpace=wrap;html=1;rounded=0;" vertex="1" parent="1">
          <mxGeometry x="530" y="215" width="100" height="40" as="geometry" />
        </mxCell>
        <mxCell id="Ew9fL7A3X2qlsFaMZsa6-8" value="Get euler angles" style="whiteSpace=wrap;html=1;rounded=0;" vertex="1" parent="1">
          <mxGeometry x="530" y="265" width="100" height="40" as="geometry" />
        </mxCell>
      </root>
    </mxGraphModel>
  </diagram>
</mxfile>
